<?xml version="1.0" encoding="UTF-8" standalone="no"?>
<!-- Created with Inkscape (http://www.inkscape.org/) -->

<svg
   width="70"
   height="70"
   viewBox="0 0 18.520833 18.520834"
   version="1.1"
   id="svg1390"
   inkscape:version="1.3.2 (1:1.3.2+202311252150+091e20ef0f)"
   sodipodi:docname="ronmcbride_logo.svg"
   inkscape:export-filename="/home/blacki/Documents/working_islandtime_store/favicon.png"
   inkscape:export-xdpi="300"
   inkscape:export-ydpi="300"
   xmlns:inkscape="http://www.inkscape.org/namespaces/inkscape"
   xmlns:sodipodi="http://sodipodi.sourceforge.net/DTD/sodipodi-0.dtd"
   xmlns="http://www.w3.org/2000/svg"
   xmlns:svg="http://www.w3.org/2000/svg">
  <sodipodi:namedview
     id="namedview1392"
     pagecolor="#505050"
     bordercolor="#ffffff"
     borderopacity="1"
     inkscape:pageshadow="0"
     inkscape:pageopacity="0"
     inkscape:pagecheckerboard="1"
     inkscape:document-units="px"
     showgrid="false"
     units="px"
     inkscape:zoom="4.7024863"
     inkscape:cx="45.720495"
     inkscape:cy="43.062326"
     inkscape:window-width="1920"
     inkscape:window-height="1027"
     inkscape:window-x="0"
     inkscape:window-y="0"
     inkscape:window-maximized="1"
     inkscape:current-layer="layer1"
     inkscape:showpageshadow="0"
     inkscape:deskcolor="#505050" />
  <defs
     id="defs1387">
    <filter
       style="color-interpolation-filters:sRGB;"
       inkscape:label="Drop Shadow"
       id="filter5"
       x="-0.052148923"
       y="-0.060961291"
       width="1.1051064"
       height="1.1233627">
      <feFlood
         result="flood"
         in="SourceGraphic"
         flood-opacity="1"
         flood-color="rgb(251,255,0)"
         id="feFlood4" />
      <feGaussianBlur
         result="blur"
         in="SourceGraphic"
         stdDeviation="98.773234049479157"
         id="feGaussianBlur4" />
      <feOffset
         result="offset"
         in="blur"
         dx="3.6756480823863598"
         dy="5.600000"
         id="feOffset4" />
      <feComposite
         result="comp1"
         operator="in"
         in="flood"
         in2="offset"
         id="feComposite4" />
      <feComposite
         result="comp2"
         operator="over"
         in="SourceGraphic"
         in2="comp1"
         id="feComposite5" />
    </filter>
  </defs>
  <g
     inkscape:label="Layer 1"
     inkscape:groupmode="layer"
     id="layer1">
    <g
       id="g762"
       style="fill:#d7eef4;fill-opacity:0.67879343"
       transform="matrix(0.00126568,-0.00343294,0.00336867,0.00129913,5.2433563,15.943967)">
      <path
         id="path2424"
         style="fill:#d7eef4;fill-opacity:0.67879343;stroke:none;stroke-width:1px;stroke-linecap:butt;stroke-linejoin:miter;stroke-opacity:1"
         d="m 1562.5255,1472.6559 c 0.015,0.022 0.03,0.043 0.045,0.065 0.015,0.022 0.03,0.043 0.045,0.065 0.015,0.022 0.03,0.043 0.045,0.065 0.015,0.022 0.03,0.043 0.045,0.065 0.015,0.022 0.03,0.043 0.045,0.065 0.015,0.022 0.03,0.044 0.045,0.065 0.015,0.022 0.03,0.044 0.044,0.066 0.015,0.022 0.03,0.044 0.044,0.066 0.015,0.022 0.03,0.044 0.044,0.066 0.015,0.022 0.03,0.044 0.044,0.066 0.015,0.022 0.029,0.044 0.044,0.066 0.015,0.022 0.029,0.044 0.044,0.066 0.015,0.022 0.029,0.044 0.044,0.066 0.015,0.022 0.029,0.044 0.044,0.066 0.015,0.022 0.029,0.044 0.044,0.066 0.015,0.022 0.029,0.044 0.044,0.067 0.015,0.022 0.029,0.044 0.044,0.067 0.014,0.022 0.029,0.044 0.043,0.067 0.014,0.022 0.029,0.045 0.043,0.067 0.014,0.022 0.029,0.045 0.043,0.067 0.014,0.022 0.029,0.045 0.043,0.067 0.014,0.022 0.029,0.045 0.043,0.067 0.014,0.023 0.029,0.045 0.043,0.067 0.014,0.022 0.029,0.045 0.043,0.067 0.014,0.023 0.029,0.045 0.043,0.068 0.014,0.023 0.029,0.045 0.043,0.068 0.014,0.023 0.028,0.045 0.043,0.068 0.014,0.023 0.028,0.045 0.043,0.068 0.014,0.023 0.028,0.045 0.043,0.068 0.014,0.023 0.028,0.045 0.042,0.068 0.014,0.023 0.028,0.046 0.042,0.068 0.014,0.023 0.028,0.045 0.042,0.068 0.014,0.023 0.028,0.046 0.042,0.068 0.014,0.023 0.028,0.046 0.042,0.068 l 0.042,0.069 0.042,0.069 0.042,0.069 0.042,0.069 0.042,0.069 0.042,0.069 c 0.014,0.023 0.028,0.046 0.041,0.069 0.014,0.023 0.028,0.046 0.041,0.069 0.014,0.023 0.027,0.046 0.041,0.07 0.014,0.023 0.027,0.046 0.041,0.07 0.014,0.023 0.027,0.047 0.041,0.07 0.014,0.023 0.027,0.047 0.041,0.07 0.014,0.023 0.027,0.047 0.041,0.07 0.014,0.023 0.027,0.047 0.041,0.07 0.014,0.023 0.027,0.047 0.041,0.07 0.014,0.023 0.027,0.047 0.041,0.07 0.014,0.023 0.027,0.047 0.041,0.07 0.014,0.024 0.027,0.047 0.041,0.07 0.013,0.024 0.027,0.047 0.04,0.071 0.014,0.024 0.027,0.047 0.04,0.071 0.013,0.024 0.027,0.047 0.04,0.071 0.013,0.024 0.027,0.047 0.04,0.071 0.013,0.024 0.027,0.047 0.04,0.071 0.013,0.024 0.027,0.047 0.04,0.071 0.013,0.024 0.027,0.047 0.04,0.071 0.013,0.024 0.027,0.047 0.04,0.071 0.013,0.024 0.026,0.048 0.04,0.071 0.013,0.024 0.026,0.048 0.04,0.072 0.013,0.024 0.026,0.048 0.04,0.072 l 0.039,0.072 0.039,0.072 0.039,0.072 0.039,0.072 0.039,0.072 0.039,0.072 0.039,0.072 0.039,0.072 0.039,0.072 c 0.013,0.024 0.026,0.048 0.039,0.073 0.013,0.024 0.026,0.049 0.039,0.073 0.013,0.024 0.026,0.048 0.038,0.073 0.013,0.024 0.026,0.049 0.039,0.073 0.013,0.024 0.025,0.049 0.038,0.073 0.013,0.024 0.025,0.049 0.038,0.073 0.013,0.024 0.025,0.049 0.038,0.073 0.013,0.024 0.025,0.049 0.038,0.073 0.013,0.024 0.025,0.049 0.038,0.073 0.013,0.025 0.025,0.049 0.038,0.074 0.013,0.024 0.025,0.049 0.038,0.074 0.013,0.024 0.025,0.049 0.038,0.074 0.013,0.024 0.025,0.049 0.038,0.074 0.013,0.025 0.025,0.049 0.038,0.074 0.013,0.025 0.025,0.049 0.037,0.074 0.013,0.025 0.025,0.049 0.037,0.074 0.013,0.025 0.025,0.049 0.037,0.074 0.012,0.025 0.025,0.049 0.037,0.074 0.012,0.025 0.025,0.049 0.037,0.074 0.012,0.025 0.025,0.05 0.037,0.074 0.012,0.025 0.025,0.05 0.037,0.075 0.012,0.025 0.025,0.05 0.037,0.075 0.012,0.025 0.025,0.05 0.037,0.075 0.012,0.025 0.024,0.05 0.037,0.075 13.0661,50.2528 7.6031,98.1354 -0.8456,142.7211 -63.4868,366.9819 -401.9401,319.4178 -567.95699,240.0949 -139.0714,-66.4484 -257.54701,-133.387 -405.60231,-197.9267 -190.47029,-83.0291 -141.69954,39.1621 -149.39712,102.2198 -2.45859,20.1405 -7.98765,101.7628 -33.72638,37.6912 -10.29265,-25.6216 -6.29126,-103.6244 2.91927,-141.9454 52.97138,-220.3908 726.63943,374.215 858.50163,136.8084 108.2508,-194.8962 190.0106,-270.6 27.4271,-365.8349 -47.0971,-27.359 -92.42,-55.6366 -139.2454,-79.7252 -71.8598,-37.6167 -140.3298,-82.743 -215.83153,-74.0002 -133.20093,7.3817 -218.57179,76.2544 -359.44659,141.4202 -55.07897,23.0424 -142.52352,54.2231 -179.86744,66.9669 -56.54776,18.7353 -115.95907,48.0171 -164.73711,49.8526 -64.14511,-11.0909 -71.099,-7.2453 -59.00822,-12.9071 14.70096,-6.2707 219.86386,-62.03 259.81425,-86.7229 16.584,-10.2505 37.0506,-16.0153 56.60323,-24.977 28.9733,-13.2795 128.1396,-64.8439 238.87468,-115.0682 110.73509,-50.2244 233.03896,-99.1088 276.63733,-62.0242 m 1212.3381,265.2496 c -80.0192,8.2842 -183.2567,11.4898 -259.9359,11.6021 -76.6792,0.1123 -153.749,-16.4049 -189.6753,-4.4613 -294.3421,97.8534 -243.3152,779.2548 -56.711,965.8589 50.5693,50.5693 378.4521,51.6733 425.3219,51.4161 46.8697,-0.2571 178.1233,-10.7542 200.1703,-15.4551 31.9738,-6.8175 121.1417,-19.5684 166.4974,-32.364 356.788,-42.1297 230.2214,-723.3615 -24.8458,-987.0887 -44.9055,-46.4301 -146.6189,-1.3312 -260.8216,10.492 z m -120.0911,43.6846 c 133.9332,4.989 230.1707,16.863 289.1918,126.6533 59.0211,109.7902 99.3253,353.6121 99.3253,488.6612 0,251.5441 -163.072,280.1261 -211.9861,298.961 -34.031,10.1223 -68.6258,15.5454 -101.0993,15.5454 -81.1437,5.0582 -149.9718,5.9993 -195.4426,1.9729 -197.2385,-7.7649 -208.3868,-180.076 -226.4414,-402.7753 -18.0962,-223.2121 -17.0248,-475.8239 135.2065,-513.8818 45.2159,-11.304 172.9792,-16.5621 211.2458,-15.1367 z m 687.5549,849.8157 c -1.691,-105.7426 22.2874,-238.7038 -6.5831,-423.3592 -14.586,-93.2915 -34.536,-167.0542 -77.0432,-267.5153 -42.2175,-99.7765 -150.2226,-200.3633 -102.4305,-284.008 5.8239,-10.193 368.4076,-129.0471 535.6172,-288.5126 67.2056,-64.093 308.8072,23.1786 358.3834,40.185 73.2708,25.1345 311.039,62.1448 390.8869,85.6388 14.6033,4.2968 145.8626,24.1023 165.1074,41.0216 13.5601,11.9216 -517.9557,2.4304 -610.2659,-20.7825 -63.4629,-15.9588 -160.4346,29.3206 -254.4451,87.0487 -94.0105,57.728 -185.0598,127.9046 -236.6782,161.7401 -75.0795,49.2141 -89.1524,259.9962 -98.276,451.1034 -9.1237,191.1072 -57.7812,430.2263 -64.2729,417.44 z M 421.23807,856.7514 c 5.73842,-20.11582 -104.56544,-31.30217 -154.07238,-54.1994 -40.98519,-18.95604 -86.4145,-37.89305 -117.25051,-68.35258 -30.83595,-30.45936 -43.11192,-45.91928 -43.11192,-45.91928 0,0 2.67344,27.94417 8.7899,68.09826 -0.81892,18.95484 -7.02817,84.023 -19.0404,123.94124 -19.34556,64.28868 -104.4609133,168.79516 -84.263747,182.31626 14.258714,9.5456 57.915211,-56.4325 87.840987,-76.65819 75.02013,-50.70315 63.69845,-124.36834 76.51191,-127.31117 0,0 73.79377,41.19123 133.33693,31.0566 44.63001,-7.59619 104.87446,-10.58945 111.25923,-32.97174 z m -25.62247,379.5213 c -102.75278,44.5223 -106.44151,48.4017 -143.63375,63.7624 -38.78559,16.0191 -76.94576,-23.2545 -105.85455,-73.929 -30.19133,-52.9227 -34.92873,-55.0884 -45.8161,-92.9368 -13.308961,-46.2679 -0.16842,-60.8354 73.98946,-107.7547 76.63896,-48.4894 138.33961,-74.84986 218.46092,-87.63265 47.73348,-7.61554 69.57442,12.69021 95.84782,40.5701 26.2734,27.87985 65.82387,70.29685 88.9381,95.97475 63.89875,70.9856 -62.79515,110.3246 -181.93184,161.9461 z M 661.61252,1103.5976 C 657.2711,1092.1177 649.208,1080.3119 637.34442,1068.3924 607.12819,1038.0333 559.53465,981.55297 526.51561,945.54596 510.03126,927.57 494.51045,911.37832 474.9484,900.71094 c -19.56227,-10.66748 -43.01411,-15.31685 -73.40892,-10.83472 -98.94902,14.59144 -175.3598,47.1829 -268.77953,107.1138 -45.082168,28.92118 -72.141741,47.85658 -86.511393,68.90198 -14.369552,21.0452 -13.870553,43.9065 -4.981746,74.0804 7.14395,24.2508 12.427253,37.7501 20.638606,53.3 8.211129,15.5499 19.141785,33.0168 38.146223,66.6454 18.53974,32.8064 39.89754,62.2317 63.49255,81.4854 23.59524,19.2538 50.7532,28.3182 77.20597,17.4434 45.51891,-18.7124 49.9284,-23.5038 174.84953,-77.5094 72.1514,-31.1923 149.70601,-58.3957 199.17215,-90.2067 24.73311,-15.9056 43.06168,-33.0858 48.90554,-54.2957 2.92191,-10.605 2.27687,-21.7573 -2.0647,-33.2372 z m -13.83156,4.6464 c 3.41003,8.7674 3.58531,16.7333 1.49638,24.3146 -4.17769,15.1624 -19.2594,30.7055 -42.63801,45.74 -46.75716,30.0691 -124.317,57.6324 -197.10654,89.1005 -125.0957,54.0812 -129.55628,58.8993 -174.5658,77.4028 -20.75027,8.5308 -41.01085,2.1091 -62.14813,-15.1389 -21.13712,-17.2481 -41.84836,-45.3063 -59.81878,-77.1052 -19.125444,-33.8431 -30.184175,-51.5296 -37.968758,-66.2718 -7.784745,-14.7422 -12.489698,-26.6894 -19.493709,-50.4647 -8.406169,-28.5356 -8.666083,-44.0871 3.016358,-61.1972 11.682664,-17.1099 37.501584,-36.0785 82.326129,-64.8343 92.40857,-59.28218 166.1241,-90.63236 263.05462,-104.92603 27.9546,-4.12229 47.27213,-0.0157 64.09774,9.15947 16.82561,9.17519 31.30797,23.94287 47.62041,41.7315 32.57325,35.52075 80.05403,91.91646 111.28777,123.29796 10.80776,10.8587 17.4311,20.4236 20.84016,29.1914 z M 4155.588,-564.08336 c -18.69,-49.89177 -39.1362,-99.31662 -61.3355,-148.1833 -109.1072,-240.15741 -257.7189,-460.22404 -439.38,-650.65294 24.8957,45.1505 48.0356,91.257 69.363,138.2066 178.4635,392.93758 203.8936,822.0517 121.6521,1221.1184567 C 3804.7668,195.93882 3493.732,729.93466 3404.8772,894.96339 c -22.6338,42.03638 -72.531,108.57871 -61.1355,161.31741 7.5289,34.844 29.1755,34.6121 72.2346,46.1353 78.151,20.9141 119.9273,35.7921 223.0038,57.1816 103.0764,21.389 205.902,41.0331 282.9577,55.3334 77.0556,14.3002 83.7303,15.7328 135.7405,19.4885 52.0103,3.7559 54.3305,-25.3016 121.5479,-172.1235 75.3433,-164.56993 124.933,-624.85247 125.719,-791.95919 0.7863,-167.10648 -16.3672,-334.572758 -51.4789,-499.3527 -24.1391,-113.28595 -56.7604,-225.30599 -97.8783,-335.06757 z m -236.7125,-331.11422 c 38.7508,100.07022 76.0332,219.97903 105.8209,361.77019 54.8636,321.80274 75.44,618.602995 88.6962,656.70443 19.1208,54.96198 42.6721,109.6435 76.7646,163.40403 48.9539,64.86119 104.793,203.73695 58.0662,149.41169 -43.022,-50.018 -218.6466,-146.84828 -341.7827,-147.24161 -59.1097,-0.18786 -177.9205,31.91956 -177.9205,31.91956 0,0 71.7511,-40.14409 107.3876,-61.12283 35.6409,-20.97122 62.4373,-37.11439 86.5403,-63.72607 26.938,-29.74165 49.3859,-62.77453 61.7893,-103.781461 12.4038,-41.007314 46.3229,-342.648219 21.5671,-520.827269 -76.0018,-547.01921 -324.529,-876.93888 -312.1253,-878.93558 17.5578,30.5403 126.1664,156.6895 225.1963,412.42492 z m 318.9567,1385.99595 c 10.4028,25.60478 10.1397,58.53042 3.3866,108.96106 -12.6268,94.29484 -13.0195,112.79649 -50.8135,255.40203 -36.1883,136.54719 -64.0922,247.99824 -144.3388,234.81794 -46.8257,-7.6915 -56.6222,-11.7131 -196.6515,-42.473 -505.1582,-110.96659 -352.3427,-138.7667 -243.7978,-316.05502 38.2984,-62.55337 71.0431,-123.81536 104.9031,-206.39066 33.8599,-82.57531 62.164,-144.66174 126.7929,-161.5613 108.4798,-28.36581 192.9042,-12.47315 298.6056,43.24101 57.5324,30.32483 88.5384,51.13778 101.9134,84.05794 z m -51.1914,216.51822 c -11.8837,-29.71406 -94.1224,-100.27438 -122.3745,-151.14072 -20.413,-36.75248 -40.5969,-99.24251 -45.5084,-117.63774 -2.7193,-40.48593 -6.1564,-68.35093 -6.1564,-68.35093 0,0 -8.6719,17.50643 -32.2508,53.27887 -23.5789,35.77228 -63.9351,63.08293 -99.9427,89.55601 -43.4942,31.97747 -149.0414,64.23794 -139.0631,82.81922 11.1026,20.67486 70.7267,11.96515 116.059,10.77787 60.48,-1.58394 123.7728,-56.16343 123.7728,-56.16343 13.1803,0.40488 18.0698,74.70155 102.4952,109.83721 33.6775,14.01579 90.7156,70.16189 102.6026,58.06331 2.3678,-2.40999 2.3109,-6.17734 0.3663,-11.03967 z m -17.5067,43.00176 c -3.4053,-8.19903 -8.4092,-15.51995 -15.3948,-22.20376 -18.6285,-17.82353 -49.2058,-31.14528 -99.6042,-50.74408 -104.4361,-40.61299 -186.3266,-57.74058 -286.3447,-52.90545 -30.723,1.4851 -52.6686,10.57232 -69.5036,24.79372 -16.8352,14.22107 -28.4911,33.05307 -40.7288,53.83329 -24.5131,41.62455 -58.8869,106.08448 -81.8811,141.63873 -18.0557,27.91854 -21.2023,52.45154 -10.8833,72.08345 10.3189,19.63191 31.9474,32.93538 59.6055,43.72559 55.3162,21.58058 137.1432,33.20125 214.5302,49.79326 133.986,28.727 139.3435,32.5775 187.9558,42.0997 28.2507,5.5341 52.8661,-8.5958 71.7871,-32.0007 18.921,-23.40477 33.4273,-56.30574 44.4614,-91.99971 11.3107,-36.58842 18.2254,-55.81727 22.8912,-72.62444 4.6658,-16.80718 6.9326,-31.04709 8.6673,-56.16476 1.0791,-15.62623 0.5034,-29.07671 -2.6753,-40.82616 -0.7947,-2.93748 -1.7476,-5.76572 -2.8827,-8.49868 z m -13.2261,6.05667 c 0.886,2.12072 1.6234,4.33545 2.2277,6.66723 2.4172,9.32662 2.6923,20.55212 1.6718,35.32994 -1.7007,24.62529 -3.7286,37.21189 -8.1521,53.14614 -4.4234,15.93425 -11.39,35.36013 -22.7728,72.18191 -10.6953,34.59768 -24.8903,66.07758 -41.8403,87.04446 -16.9501,20.9667 -35.3701,31.1696 -57.5308,26.8286 -48.0686,-9.4158 -53.5143,-13.2781 -187.6875,-42.04513 -78.0713,-16.73879 -159.967,-28.71597 -212.2539,-49.11468 -26.1434,-10.19943 -44.2656,-22.51901 -51.6423,-36.55334 -7.3768,-14.03434 -6.1797,-31.2549 10.2694,-56.68892 23.7684,-36.7516 58.0232,-101.15442 82.2052,-142.21686 12.1102,-20.56342 23.0773,-37.79846 37.5574,-50.03025 14.48,-12.23178 32.5047,-19.99707 60.7611,-21.36341 97.9778,-4.73638 176.9456,11.7595 280.2515,51.93301 50.1103,19.48669 79.469,33.06092 94.6141,47.55145 5.6794,5.43388 9.6633,10.96769 12.3215,17.32985 z m -43.5461,14.97291 c -8.2486,-22.97296 -33.2548,-35.41743 -92.7392,-58.12867 -85.5298,-32.65577 -151.6393,-46.53362 -232.8359,-43.56583 -48.3743,1.76794 -65.3464,25.86553 -85.0185,58.23216 -19.6722,32.36574 -49.192,81.52692 -66.2494,111.12686 -47.1548,81.82854 85.387,95.85605 213.194,123.36677 110.2308,23.72735 114.6842,26.81317 154.4195,34.6629 41.4377,8.18618 70.2737,-37.6272 87.583,-92.81436 18.0775,-57.63561 22.2455,-60.67406 24.6961,-99.82462 0.8425,-13.46053 0.1781,-24.06582 -3.0496,-33.05521 z M 169.82358,-1123.1414 c -464.28447,665.3792 -540.41544,1536.13988 -199.854159,2285.7876 29.24250336,64.3092 61.348763,127.234 96.200629,188.584 34.85231,61.3501 61.1037,117.7646 117.591,136.2597 59.6426,19.5281 181.52634,-43.7879 181.52634,-43.7879 l 186.416,-86.6506 186.42423,-86.6538 c 0,0 94.74442,-52.0078 97.60491,-89.2893 4.12157,-53.7167 -57.75379,-104.41 -124.87618,-164.9761 C 643.73358,955.56602 580.85547,890.47444 522.65385,821.36135 464.45195,752.24798 410.92427,679.11639 362.49215,602.46371 314.05992,525.81126 270.72668,445.63899 232.91299,362.45518 19.277118,-107.79492 -3.4051107,-641.83479 169.82358,-1123.1414 Z m -59.13366,121.0445 c 6.33236,11.22624 -175.137262,371.2468 -154.884658,913.830392 6.701485,179.539847 92.869253,472.121128 112.274876,510.730708 19.405163,38.60983 47.336052,67.85042 79.115972,93.16706 28.43525,22.65223 57.69141,34.56292 96.52412,49.93057 38.83233,15.36712 116.65283,44.24123 116.65283,44.24123 0,0 -122.39503,-10.55582 -181.15178,-4.86328 -157.833603,15.29222 -325.4709,219.4585 -327.58869,222.0445 4.03959,-7.83229 11.40788,-112.59411 47.22921,-181.70209 24.251023,-58.15747 37.939668,-115.65119 47.205735,-172.7523 6.424751,-39.58517 -25.128078,-335.55099 -27.212145,-661.33115 16.433377,-513.36712 174.707017,-767.97605 191.3896,-813.56534 0.19663,0 0.34449,0.091 0.44493,0.2697 z M 726.3328,1105.0084 c 18.18583,48.717 -48.34124,98.7299 -312.94394,214.7269 -130.39557,57.1632 -139.11708,62.9959 -183.28392,79.5715 C 154.41351,1427.7081 102.9314,1324.0053 37.903012,1197.3404 -30.010749,1065.0553 -34.395843,1047.0231 -67.200289,957.16398 -107.30268,847.31619 -94.406626,820.41707 -5.9809894,747.88703 85.403067,672.92986 164.59345,641.06687 276.92707,647.87336 c 66.92506,4.055 108.08696,59.35526 159.1341,133.64032 51.04727,74.2854 96.38688,127.92 147.43738,181.74982 63.30055,66.7466 128.68976,103.8538 142.83425,141.7449 z" />
    </g>
  </g>
</svg>
