<?xml version="1.0" encoding="UTF-8" standalone="no"?>
<!-- Created with Inkscape (http://www.inkscape.org/) -->

<svg
   width="1000"
   height="1000"
   viewBox="0 0 264.58333 264.58333"
   version="1.1"
   id="svg389"
   inkscape:version="1.2.2 (1:1.2.2+202212051550+b0a8486541)"
   sodipodi:docname="zermcbride_logo.svg"
   inkscape:export-filename="zermcbride_avatar.png"
   inkscape:export-xdpi="300"
   inkscape:export-ydpi="300"
   xmlns:inkscape="http://www.inkscape.org/namespaces/inkscape"
   xmlns:sodipodi="http://sodipodi.sourceforge.net/DTD/sodipodi-0.dtd"
   xmlns="http://www.w3.org/2000/svg"
   xmlns:svg="http://www.w3.org/2000/svg">
  <sodipodi:namedview
     id="namedview391"
     pagecolor="#505050"
     bordercolor="#ffffff"
     borderopacity="1"
     inkscape:showpageshadow="0"
     inkscape:pageopacity="0"
     inkscape:pagecheckerboard="1"
     inkscape:deskcolor="#505050"
     inkscape:document-units="px"
     showgrid="false"
     inkscape:zoom="0.32987698"
     inkscape:cx="571.42514"
     inkscape:cy="201.5903"
     inkscape:window-width="1920"
     inkscape:window-height="1027"
     inkscape:window-x="0"
     inkscape:window-y="0"
     inkscape:window-maximized="1"
     inkscape:current-layer="layer1"
     showguides="true" />
  <defs
     id="defs386" />
  <g
     inkscape:groupmode="layer"
     id="layer2"
     inkscape:label="bg"
     style="display:none">
    <path
       id="path5847"
       style="display:inline;fill:#ff0000;stroke-width:0.401043;stroke-linecap:round;stroke-linejoin:round"
       d="M 115.75649,3.38499 A 127.10639,128.62737 0.599535 0 0 73.663407,13.278909 107.59963,108.8872 0.59940208 0 1 82.129499,12.446076 107.59963,108.8872 0.59940208 0 1 195.70131,114.90522 107.59963,108.8872 0.59940208 0 1 94.425176,229.86126 107.59963,108.8872 0.59940208 0 1 16.938206,202.68606 127.10639,128.62737 0.599535 0 0 130.28127,260.21604 127.10639,128.62737 0.599535 0 0 249.9186,124.41975 127.10639,128.62737 0.599535 0 0 115.75649,3.38499 Z" />
  </g>
  <g
     inkscape:label="logo"
     inkscape:groupmode="layer"
     id="layer1">
    <g
       id="g2524"
       transform="matrix(0.81298172,0.54838278,0.54838278,-0.81298172,-51.039214,174.78938)" />
    <g
       id="g357"
       style="fill:#d7eef4">
      <path
         style="fill:#d7eef4;stroke-width:0.0535829"
         d="m 249.85158,124.37387 c 0.0233,-0.0342 -1.84727,17.96443 -3.46656,23.47642 -2.55222,7.38746 -8.34889,31.19309 -22.91154,50.26415 -1.35972,1.78068 -14.54277,-5.11349 -14.81319,-8.72123 -0.5141,-6.85885 6.74225,-31.55891 8.40371,-38.66904 1.11238,-4.76038 4.09603,-20.78951 4.09603,-20.78951 0,0 -7.07723,19.11241 -7.85249,21.1103 -3.18085,8.19723 -9.95164,26.02619 -12.83667,32.61979 -1.30102,2.9734 -9.89053,-5.38753 -9.33957,-9.72515 0.78307,-6.16517 3.49609,-18.07863 3.97732,-22.41027 2.43276,-19.26276 -0.45469,-30.25136 -0.45469,-30.25136 0,0 0.0666,6.88593 -1.14366,14.54173 -1.10467,6.98789 -2.18442,11.59213 -2.88321,14.28475 -1.49428,5.75786 -1.52927,5.53651 -3.24382,11.2209 -1.71456,5.68439 -6.52204,9.69768 -3.20436,18.87906 4.75272,13.15272 21.51739,26.39323 34.94097,29.35159 6.17478,0.40416 12.22916,-8.80004 16.20127,-16.22333 3.97212,-7.42329 5.86198,-13.06568 8.10425,-18.77072 3.87096,-12.07757 5.68788,-18.57857 6.41196,-27.38617 0.72408,-8.80761 0.1967,-23.06908 0.1967,-23.06908 z m -54.53662,81.1713 c 0.40388,0.39063 -0.0192,-0.34983 0,0 z"
         id="path4639"
         sodipodi:nodetypes="ccssscsssccsssscscsccss" />
      <path
         id="path2532"
         style="fill:#d7eef4;stroke-width:0.404137;stroke-linecap:round;stroke-linejoin:round"
         d="m 120.15649,5.6999104 c -2.97097,0.00592 -5.95176,0.1148316 -8.93692,0.3281454 -14.670891,1.0487455 -29.0538,4.6012022 -42.525573,10.5042682 2.84289,-0.430796 5.701986,-0.74905 8.57002,-0.953947 24.002963,-1.713045 46.940573,5.44979 66.225933,17.754472 9.6427,6.152342 31.56454,33.329367 38.47982,41.341145 1.76151,2.040802 4.27799,6.02224 7.25692,6.461621 1.96814,0.290323 2.20344,-0.997989 3.80907,-2.934705 2.79571,-3.372248 3.82548,-4.821965 8.23981,-10.018509 4.0207,-4.733175 7.30105,-8.818205 9.972,-12.460222 2.6197,-3.572129 3.8002,-4.111191 5.00176,-6.808886 1.20158,-2.697705 -4.18056,-5.694421 -10.56163,-12.191504 C 198.53528,29.439307 175.41655,17.659717 166.6906,14.300936 157.96462,10.942135 148.87294,8.5326005 139.57494,7.1334146 133.18258,6.1714688 126.6926,5.6869046 120.15649,5.6999104 Z m -19.60346,6.0373576 c 5.45626,0.03892 11.68442,0.473863 18.67793,1.547192 17.89337,3.46311 33.81573,8.258321 36.06499,8.30802 3.24448,0.07171 6.56045,-0.09841 10.03142,-0.848527 4.3389,-1.321907 12.68165,-1.542031 8.93693,-0.129708 -3.44778,1.300344 -11.9064,8.739613 -14.30662,15.295191 -1.15216,3.146929 -1.76837,10.117211 -1.76837,10.117211 0,0 -0.71321,-4.621656 -1.1219,-6.937561 -0.40821,-2.315988 -0.73516,-4.064217 -1.66139,-5.87716 -1.03516,-2.02619 -2.32901,-3.878612 -4.23437,-5.353678 -1.90535,-1.475107 -17.02855,-9.270013 -26.8273,-11.487154 -30.082698,-6.8067113 -52.14346,-0.10899 -52.008198,-0.80977 1.936842,-0.329668 10.634539,-3.614422 25.925549,-3.816821 0.747931,-0.0099 1.511868,-0.0128 2.291329,-0.0072 z m 76.3726,10.517187 c 1.54039,-0.04626 3.25754,0.621359 5.76503,1.982308 4.68842,2.544683 5.64889,2.93276 12.37805,7.77782 6.44328,4.639223 11.7332,8.338608 9.49296,12.354284 -1.30726,2.343234 -1.70622,2.785929 -6.02134,9.639205 -15.56687,24.723319 -14.06861,16.025673 -21.24469,6.721037 -2.53199,-3.282996 -5.1029,-6.244466 -8.76794,-9.688297 -3.66507,-3.443833 -6.36564,-6.185005 -6.00067,-9.965284 0.61264,-6.345212 3.07499,-10.529258 8.03207,-15.057478 2.69806,-2.464671 4.38603,-3.704114 6.36653,-3.763595 z m 10.45311,7.060551 c -1.78446,0.01109 -7.11796,2.897 -10.33322,3.33468 -2.32311,0.316239 -5.97807,0.08487 -7.03316,-0.03772 -2.15795,-0.698135 -3.67575,-1.09554 -3.67575,-1.09554 0,0 0.73362,0.822998 2.11305,2.815332 1.37944,1.992334 1.97888,4.697196 2.6231,7.154085 0.77817,2.96773 0.31191,9.225972 1.4795,9.0842 1.29913,-0.157747 2.05675,-3.494921 2.91506,-5.919535 1.14513,-3.23479 -0.40514,-7.720976 -0.40514,-7.720976 0.28852,-0.689353 4.24632,0.596795 7.78454,-3.141927 1.4114,-1.491381 5.48553,-3.343078 5.09839,-4.224031 -0.0771,-0.17548 -0.27437,-0.250378 -0.56637,-0.248564 z m 1.87844,1.822111 c -0.49509,0.0096 -0.97715,0.121628 -1.46606,0.352433 -1.30377,0.615482 -2.61532,1.957357 -4.65605,4.217831 -4.22881,4.684171 -6.77999,8.662999 -8.55865,14.058573 -0.54636,1.657387 -0.5215,3.008039 -0.12454,4.195093 0.39697,1.187058 1.13845,2.195669 1.96939,3.275769 1.66442,2.163512 4.31632,5.323343 5.69629,7.280175 0.5418,0.768294 1.11648,1.322673 1.70791,1.667082 0.59147,0.344374 1.19932,0.479287 1.81384,0.410311 1.22906,-0.137954 2.35868,-1.007605 3.48041,-2.247408 2.24344,-2.479609 4.50889,-6.569548 6.94118,-10.321334 4.2112,-6.49576 4.51955,-6.699398 6.00067,-9.074898 0.86074,-1.380503 0.62749,-2.976346 -0.20413,-4.464844 -0.83161,-1.488511 -2.24734,-2.94345 -3.87728,-4.270023 -1.6708,-1.359822 -2.52855,-2.125691 -3.30677,-2.722315 -0.77825,-0.596585 -1.47363,-1.011474 -2.74299,-1.62574 -0.98712,-0.477688 -1.84808,-0.746694 -2.67322,-0.730705 z m 0.046,0.824239 c 0.64111,-0.01364 1.32577,0.215907 2.2593,0.66766 1.24448,0.602232 1.85786,0.97023 2.5957,1.535823 0.73782,0.565605 1.60622,1.341422 3.28766,2.709912 1.57989,1.285836 2.92713,2.689046 3.67212,4.022494 0.74499,1.333447 0.90001,2.522565 0.2248,3.605464 -1.46456,2.348928 -1.77535,2.55712 -5.9924,9.061979 -2.45383,3.784941 -4.73687,7.870035 -6.85747,10.213847 -1.06029,1.171909 -2.06796,1.875929 -2.94659,1.974557 -0.4393,0.04931 -0.87677,-0.03097 -1.32756,-0.299207 -0.45082,-0.268225 -0.91614,-0.724795 -1.40974,-1.424719 -1.42644,-2.022734 -4.0745,-5.173265 -5.71644,-7.307564 -0.82227,-1.068831 -1.49618,-2.008783 -1.83762,-3.02979 -0.34143,-1.020993 -0.37795,-2.13695 0.12454,-3.661275 1.74239,-5.285515 4.19991,-9.123311 8.38295,-13.756783 2.02906,-2.247552 3.32943,-3.520554 4.3894,-4.020943 0.39749,-0.187646 0.76669,-0.283271 1.15135,-0.291455 z m -0.10594,2.617411 c -1.36056,-0.04115 -2.51421,1.023799 -4.90099,3.70055 -3.43184,3.84877 -5.49452,7.060169 -6.9882,11.420491 -0.88989,2.597735 0.0173,3.997645 1.29914,5.712313 1.28178,1.714657 3.23592,4.299552 4.42712,5.818249 3.29305,4.198411 6.71162,-2.526437 10.73423,-8.720398 3.46941,-5.342158 3.71997,-5.513469 4.93407,-7.453808 1.26612,-2.023464 -0.5282,-4.503317 -3.04323,-6.567558 -2.62662,-2.155836 -2.69975,-2.439721 -4.68343,-3.383772 -0.68202,-0.324578 -1.24631,-0.509966 -1.77871,-0.526067 z" />
      <path
         style="fill:#d7eef4;stroke-width:0.0516403"
         d="m 210.06649,222.67578 c -6.07461,4.70041 -11.80682,8.84143 -18.22622,13.0627 -6.41061,4.2155 -14.08754,8.40305 -22.08798,12.68179 -4.83846,2.58767 -10.45056,-8.34308 -6.60743,-12.67198 5.99978,-6.88567 21.11582,-23.41679 27.418,-33.03343 3.84379,-5.86531 2.15023,-8.48678 -7.59944,-15.98547 -5.36112,-3.06051 -9.50115,1.61421 -15.20376,7.54187 -4.57094,4.91187 -8.57246,9.16302 -11.33016,11.47863 -2.62739,2.2062 -13.02062,9.94311 -12.08877,9.6232 4.15698,-1.42711 19.46408,-11.56662 27.50901,-17.69583 4.49659,-3.57588 13.16897,4.47304 10.01045,9.54515 -5.03427,7.66586 -9.30654,12.50374 -18.96462,22.35064 -4.2262,4.30881 -6.00706,6.64627 -10.10261,12.29249 -1.77101,2.44156 -3.35165,8.91721 2.3604,13.96636 3.87604,3.42621 21.67897,-5.84432 25.19271,-7.61039 6.66607,-3.3505 14.5242,-8.34858 21.73064,-14.16666 7.20644,-5.81808 13.76119,-12.45615 19.22672,-19.5139 0.52252,-0.67474 -9.34663,6.67215 -11.23694,8.13483 z"
         id="path4637"
         sodipodi:nodetypes="ssscsccssccsssssss" />
      <path
         id="rect648"
         style="fill:#d7eef4;stroke:none;stroke-width:13.3087;stroke-linecap:round;stroke-linejoin:round"
         d="m 204.3051,68.43445 c -2.99418,3.769312 -11.05944,12.968101 -13.8887,17.965195 -2.02586,2.485772 1.34088,9.824749 2.17023,14.967955 1.20115,5.8725 1.71039,11.47165 2.034,17.36938 1.38404,3.78009 7.70182,4.63186 11.18379,5.18914 9.5205,0.57837 22.23168,-0.14459 33.20266,-0.5533 4.10359,-0.16832 6.83295,-0.48406 10.94319,-0.43282 -9.88949,-1.33897 -18.23619,-2.26799 -28.41603,-2.72463 -6.456,0.0392 -12.98057,-0.59062 -18.9907,-3.74262 -2.19411,-2.12478 -4.49828,-5.92331 -4.20841,-10.77836 0.26301,-5.20673 0.45403,-9.668687 2.72319,-14.216724 3.42539,-6.615737 6.84107,-12.087988 13.75842,-15.170613 3.35256,-1.658667 7.70902,-0.781341 9.80263,2.417106 3.99526,5.405175 3.64668,12.451111 5.84015,18.573981 1.68226,5.85357 3.95268,11.26148 8.52604,14.98663 3.08902,2.33365 5.52353,0.12165 6.83133,-2.82011 0.50574,-1.53089 1.70858,-4.48976 1.70858,-4.48976 0,0 -3.66597,6.41819 -6.67561,5.88229 -3.47297,-1.63731 -4.66313,-4.24335 -6.03715,-7.1101 -1.28918,-3.880945 -2.46661,-9.593841 -2.43079,-13.933465 0.34015,-4.696578 0.52551,-7.327569 0.97305,-11.724682 0.4599,-3.282184 1.6517,-6.97704 -0.0573,-10.077661 -2.93492,-4.000391 -5.46599,-9.487107 -9.20718,-13.133308 -3.9502,-5.091274 -15.85549,8.779192 -19.78546,13.556476 z"
         sodipodi:nodetypes="ccccccccccccccccccccccccc" />
      <g
         id="g314"
         transform="matrix(1.0152587,0.67894658,0.67894658,-1.0152587,-82.304441,217.53096)"
         style="fill:#d7eef4">
        <g
           id="g312"
           transform="matrix(0.67134535,0.44041255,0.44041255,-0.67134535,-43.086967,183.5801)"
           style="fill:#d7eef4">
          <path
             id="path310"
             style="fill:#d7eef4;fill-opacity:1;stroke-width:0.151491;stroke-linecap:round;stroke-linejoin:round"
             d="m 10.976393,202.06657 c 8.022733,12.6726 18.156139,23.87739 29.960747,33.12998 2.401989,1.88261 4.859628,3.67412 7.36788,5.3733 5.518155,3.73818 11.281147,7.02985 17.233746,9.86183 8.658324,4.11927 17.718321,7.26686 27.010527,9.40329 9.292177,2.13644 35.553477,5.36101 45.752877,3.28309 9.09942,-1.85381 15.35872,-1.31784 15.88126,-4.28365 0.52256,-2.9658 -0.16828,-4.09468 -0.34597,-8.6084 -0.18116,-4.60202 -0.62447,-9.9263 -1.32447,-16.22047 -0.76854,-6.91036 -0.81273,-8.72264 -1.25319,-13.16774 -0.25299,-2.55288 0.28316,-3.77642 -1.54624,-4.6533 -2.76892,-1.32728 -7.16681,0.60291 -9.81971,1.3237 -10.4148,2.82969 -44.445057,13.30504 -56.105249,13.00748 -23.320359,-0.59509 -46.796241,-7.62007 -66.111294,-22.75582 -2.307771,-1.8087 -4.543219,-3.70796 -6.700914,-5.69329 z m 2.549736,2.88008 c 0.728224,-0.0835 15.549486,17.76824 44.404611,28.99026 9.548095,3.71334 26.777691,5.74779 29.229629,5.58726 2.451925,-0.16048 4.602384,-0.98918 6.632919,-2.11181 1.816846,-1.00447 3.089993,-2.2962 4.755771,-4.02133 1.666131,-1.72479 4.904801,-5.22471 4.904801,-5.22471 0,0 -3.45361,6.24408 -4.274105,9.56148 -1.70915,6.91075 1.199505,18.02317 3.372715,21.08855 2.36038,3.32937 -4.567032,-1.61401 -7.481286,-5.20577 -2.506578,-2.61346 -5.213279,-4.64799 -7.997029,-6.43752 -1.92984,-1.24061 -18.12477,-6.2669 -35.226477,-13.54279 -7.456373,-3.52073 -13.592473,-7.17648 -18.605658,-10.65546 -12.811474,-8.89072 -18.290577,-16.62739 -19.739977,-18.01056 0.0045,-0.0105 0.01253,-0.0163 0.02409,-0.0176 z m 124.726601,17.73472 c 3.34638,-0.22283 4.42202,4.06657 3.86495,21.74715 -0.26007,8.25437 -0.17554,8.85662 -0.4066,11.58303 -0.39605,4.67231 -6.97736,4.78287 -15.06995,5.03059 -8.45164,0.25871 -9.48538,0.0391 -14.90002,-0.48318 -2.89588,-0.27934 -4.72811,-0.69413 -6.00397,-1.61163 -1.64038,-1.17966 -2.36041,-3.18999 -3.23588,-6.81217 -1.60846,-6.65485 -1.30422,-11.59641 1.79619,-17.30994 1.84714,-3.40394 5.69353,-4.18104 10.75577,-5.00244 5.06222,-0.82142 8.92455,-1.85942 12.93718,-3.19098 4.62008,-1.53317 7.9727,-3.79796 10.26233,-3.95043 z m -2.17358,3.06362 c -0.56136,0.0362 -1.18061,0.17941 -1.85272,0.43482 -2.28249,0.86737 -6.32595,2.02618 -8.96676,2.90607 -1.31839,0.43927 -2.52059,0.86931 -3.5331,1.64646 -1.0125,0.77716 -1.80403,1.90474 -2.28726,3.61744 -1.57313,5.57564 -1.68516,10.39414 -0.78128,16.76555 0.43619,3.0747 0.78042,4.95689 1.53164,6.22068 0.75122,1.26379 1.9438,1.78631 3.71485,2.04082 1.42339,0.20455 2.24768,0.25002 3.2458,0.18946 0.99813,-0.0606 2.15972,-0.21896 4.34763,-0.41578 2.13441,-0.19201 4.16093,-0.61442 5.71279,-1.39857 1.55185,-0.78414 2.65947,-2.00024 2.71903,-3.65814 0.10249,-2.85283 -0.0425,-3.20105 0.10158,-11.09393 0.0832,-4.55872 0.50003,-9.30807 0.0174,-12.68362 -0.24131,-1.68778 -0.69974,-3.06699 -1.66011,-3.88447 -0.48018,-0.40874 -1.07139,-0.64174 -1.76779,-0.68789 -0.1741,-0.0115 -0.35462,-0.011 -0.54173,0.001 z m 0.45801,0.84071 c 0.53405,0.0303 0.94966,0.21175 1.29293,0.50395 0.68654,0.58441 1.13692,1.75421 1.36501,3.34956 0.45619,3.1907 0.0568,7.94608 -0.0271,12.54511 -0.1443,7.90391 -3.8e-4,8.25721 -0.10172,11.07812 -0.0467,1.30051 -0.8558,2.21741 -2.246,2.91987 -1.3902,0.70246 -3.3296,1.12061 -5.39847,1.30672 -2.20185,0.19808 -3.37764,0.35868 -4.32392,0.4161 -0.94628,0.0574 -1.67526,0.019 -3.07076,-0.18152 -1.67489,-0.24069 -2.48651,-0.59986 -3.09726,-1.62733 -0.61075,-1.02747 -0.98447,-2.84521 -1.41816,-5.90233 -0.8941,-6.30245 -0.78296,-10.94825 0.75808,-16.41016 0.44443,-1.5752 1.11106,-2.4973 1.98192,-3.16574 0.87087,-0.66845 1.97669,-1.07886 3.28132,-1.51355 2.60515,-0.868 6.64102,-2.02138 9.00038,-2.91796 0.81641,-0.31024 1.46967,-0.43116 2.00374,-0.40084 z m -2.10916,2.66254 c -0.38352,8.7e-4 -0.81521,0.0756 -1.30065,0.23231 -1.87306,0.60462 -4.99906,1.67574 -7.06044,2.39437 -2.0614,0.71863 -3.62668,1.38485 -4.35572,4.08841 -1.2237,4.53795 -1.31098,8.42879 -0.60447,13.6395 0.68363,5.04201 1.12832,6.08558 3.83645,6.49277 2.21532,0.33309 2.43908,0.13507 5.88895,-0.18964 3.30331,-0.31091 6.23396,-1.38384 6.31746,-3.81646 0.0801,-2.33267 -0.0338,-2.6208 0.0796,-9.11543 0.11907,-6.82423 0.90626,-13.73424 -2.80115,-13.72583 z m -16.43687,3.19191 c -1.10409,-0.0293 -4.03197,4.97568 -6.23527,6.91176 -1.94565,1.70967 -3.99497,3.65425 -6.29725,4.55194 -2.30228,0.89769 -3.39129,1.17514 -3.39129,1.17514 0,0 1.50949,0.5292 3.73191,1.16956 0.96188,0.49802 4.18386,2.38708 5.96747,3.97917 2.87252,2.56407 6.27911,9.56652 7.45427,8.82429 0.82964,-0.52399 -1.55849,-4.41262 -1.90123,-6.47827 -0.8592,-5.17833 -4.93848,-6.34781 -4.78929,-7.09511 0,0 3.86859,-2.90857 4.74513,-6.29623 0.65701,-2.5392 1.91952,-5.79286 0.9112,-6.66704 -0.0566,-0.0491 -0.12205,-0.0733 -0.19565,-0.0752 z" />
        </g>
      </g>
    </g>
  </g>
</svg>
